<svg width="1200" height="1040" xmlns="http://www.w3.org/2000/svg">
 <metadata id="metadata7">image/svg+xml</metadata>

 <g>
  <title>background</title>
  <rect fill="none" id="canvas_background" height="402" width="582" y="-1" x="-1"/>
 </g>
 <g>
  <g id="layer1"/>
  <g display="inline" id="layer2"/>
  <g id="layer3"/>
  <g id="g5637">
   <path fill="#dcdcd4" fill-rule="evenodd" d="m463.773593,304.545241c17.50868,-29.2204 29.50204,-89.69461 33.94113,-145.664l57.27565,-6.36396l55.15433,7.77818l62.9325,-15.55635l133.64318,21.2132l26.16296,7.07107c-10.8028,20.40391 -18.40189,40.16709 -19.79899,58.68986l-6.36397,36.06245c0.29051,10.78749 2.08306,20.07295 4.24264,28.99137l-0.7071,72.1249l2.82843,23.33452l-70.00358,-49.49748l-132.22896,-43.13351l-48.08327,21.2132l-52.3259,76.36754l-18.38477,-7.07107l-28.28428,-85.55992z" id="path15260"/>
   <g id="g1640">
    <path fill="none" stroke="#a7a69c" stroke-width="1px" stroke-miterlimit="4" id="path1601" d="m566.300942,162.030701c-2.95499,44.52433 0.43057,87.78055 4,131"/>
    <path fill="none" stroke="#a7a69c" stroke-width="1px" stroke-miterlimit="4" id="path1603" d="m534.800942,160.030701c-13.93112,57.19926 -29.23794,114.85709 -55,176"/>
    <path fill="#a7a69c" fill-rule="evenodd" id="path1605" d="m571.800942,163.530701c-0.26484,32.18244 0.99214,64.36715 2,96.53125c0,0 -1.26458,-64.38035 -1,-96.53125l-1,0z"/>
    <path fill="none" stroke="#a7a69c" stroke-width="1px" stroke-miterlimit="4" id="path1607" d="m556.300942,159.530701l-9.5,155.5"/>
    <path fill="none" stroke="#a7a69c" stroke-width="1px" stroke-miterlimit="4" id="path1609" d="m541.800942,159.530701l-54.5,199.5"/>
    <path fill="none" stroke="#a7a69c" stroke-width="1px" stroke-miterlimit="4" id="path1611" d="m550.300942,159.530701c-9.07123,61.78561 -26.04531,201.77266 -26.5,202"/>
    <path fill="none" stroke="#a7a69c" stroke-width="1px" stroke-miterlimit="4" id="path1613" d="m546.800942,159.530701c-16.07983,73.87675 -32.77179,147.44744 -51.5,220"/>
    <path fill="#a7a69c" fill-rule="evenodd" id="path1616" d="m559.300942,300.030701l1,0c-0.72004,-25.84052 -1.10527,-53.70947 -0.5,-87.5c0,0 -1.22032,61.6494 -0.5,87.5z"/>
    <path fill="#a7a69c" fill-rule="evenodd" id="path1618" d="m505.300942,386.936951l1,0.1875c7.91993,-38.49392 16.58536,-77.00386 22,-115.53125c0,0 -15.07757,76.83767 -23,115.34375z"/>
    <path fill="#a7a69c" fill-rule="evenodd" id="path1620" d="m482.332192,347.874451l0.9375,0.3125c4.57631,-14.57656 9.13047,-29.10834 15,-44.96875c0,0 -11.36143,30.08043 -15.9375,44.65625z"/>
   </g>
   <g id="g1571">
    <path fill="none" stroke="#a7a69c" stroke-width="1px" stroke-miterlimit="4" id="path1512" d="m782.800942,171.030701c-12.63996,63.13281 -6.55752,120.50488 -2.5,178.5"/>
    <path fill="none" stroke="#a7a69c" stroke-width="1px" stroke-miterlimit="4" id="path1514" d="m763.300942,166.030701c-8.69598,63.86265 -6.90481,117.23814 -1,166.5"/>
    <path fill="none" stroke="#a7a69c" stroke-width="1px" stroke-miterlimit="4" id="path1516" d="m743.300942,164.030701c-5.37515,50.5774 -7.92443,100.75111 -4,150"/>
    <path fill="none" stroke="#a7a69c" stroke-width="1px" stroke-miterlimit="4" id="path1518" d="m727.800942,159.030701c-9.59395,46.83333 -13.57203,93.66667 -12.5,140.5"/>
    <path fill="none" stroke="#a7a69c" stroke-width="1px" stroke-miterlimit="4" id="path1520" d="m708.300942,158.530701c-9.58997,44.33333 -15.85445,88.66667 -13.5,133"/>
    <path fill="none" stroke="#a7a69c" stroke-width="1px" stroke-miterlimit="4" id="path1522" d="m685.300942,160.030701c-11.01143,42.6309 -16.98155,84.70165 -16,126"/>
    <path fill="none" stroke="#a7a69c" stroke-width="1px" stroke-miterlimit="4" id="path1524" d="m659.800942,164.030701c-10.42504,39.92813 -17.21656,79.40207 -17,118"/>
    <path fill="none" stroke="#a7a69c" stroke-width="1px" stroke-miterlimit="4" id="path1526" d="m633.300942,166.030701c-11.30663,39.49466 -16.02666,77.672 -14,114.5"/>
    <path fill="none" stroke="#a7a69c" stroke-width="1px" stroke-miterlimit="4" id="path1528" d="m603.800942,173.530701c-7.48092,36.5 -7.89875,73 -7.5,109.5"/>
    <path fill="none" stroke="#a7a69c" stroke-width="1px" stroke-miterlimit="4" id="path1530" d="m675.300942,155.530701c-14.54971,42.5 -19.06927,85 -19,127.5"/>
    <path fill="none" stroke="#a7a69c" stroke-width="1px" stroke-miterlimit="4" id="path1532" d="m734.800942,160.530701c-6.73471,50.63379 -8.24752,99.52695 -7,147.5"/>
    <path fill="#a7a69c" fill-rule="evenodd" id="path1534" d="m695.332192,160.405701c-3.7966,14.29969 -6.74286,28.33691 -8.9375,42.15625c0,0 6.08726,-27.63994 9.875,-41.90625l-0.9375,-0.25zm-14.03125,128.65625l1,-0.0625c-0.48867,-14.79117 -0.36479,-29.75532 0.5625,-44.96875c0,0 -2.05209,30.21194 -1.5625,45.03125z"/>
    <path fill="#a7a69c" fill-rule="evenodd" id="path1538" d="m708.863442,208.530701c-1.8917,12.99184 -3.05824,25.63406 -3.65625,38.4375c-0.47479,10.16556 -0.58846,20.43534 -0.40625,31.0625c0,0 0.93258,-20.85853 1.40625,-31c0.59659,-12.7731 1.76937,-25.38501 3.65625,-38.34375c1.60021,-10.98994 3.72296,-22.22034 6.4375,-34.03125c0,0 -5.83321,22.85698 -7.4375,33.875z"/>
    <path fill="#a7a69c" fill-rule="evenodd" id="path1542" d="m747.519692,262.530701c0.14629,20.50837 1.49829,40.80776 3.28125,61.03125l1,-0.0625c-1.78168,-20.20891 -3.13524,-40.49933 -3.28125,-60.96875c-0.12585,-17.64342 0.65028,-35.425 2.78125,-53.4375c0,0 -3.90734,35.76052 -3.78125,53.4375z"/>
    <path fill="#a7a69c" fill-rule="evenodd" id="path1546" d="m773.800942,167.905701c-10.17405,44.38286 -7.87055,87.11331 -6,130.15625c0,0 -0.76203,-38.68112 -0.59942,-58.03925c0.19903,-23.69432 2.02125,-47.53299 7.59942,-71.867l-1,-0.25z"/>
    <path fill="#a7a69c" fill-rule="evenodd" id="path1550" d="m792.832192,174.405701c-6.13917,22.86075 -7.12721,42.25717 -9.53125,62.5625c0,0 4.3595,-39.56319 10.46875,-62.3125l-0.9375,-0.25z"/>
    <path fill="#a7a69c" fill-rule="evenodd" id="path1554" d="m788.697132,318.540861c1.78643,17.69329 4.53682,35.37494 7.10381,53.05234l1,-0.125c-4.52665,-31.17255 -9.61736,-62.33188 -9,-93.4375c0,0 -0.4664,27.01464 0.89619,40.51016z"/>
    <path fill="#a7a69c" fill-rule="evenodd" id="path1558" d="m644.332192,167.905701c-7.10263,26.32372 -10.56083,52.02451 -12.5,77.46875c-0.65307,8.56885 -1.1381,17.10247 -1.53125,25.625c0,0 1.87917,-16.97541 2.53125,-25.53125c1.93623,-25.4056 5.35633,-51.06832 12.4375,-77.3125l-0.9375,-0.25z"/>
    <path fill="none" stroke="#a7a69c" stroke-width="1px" stroke-miterlimit="4" id="path1565" d="m619.300942,168.530701c-11.53753,38.52269 -11.71141,75.78275 -11.5,113"/>
    <path fill="#a7a69c" fill-rule="evenodd" id="path1567" d="m589.300942,168.968201c-3.50734,22.38028 -3.46008,42.94415 -4.5,64.03125c0,0 2.00738,-41.61989 5.5,-63.90625l-1,-0.125z"/>
   </g>
   <path fill="#000000" fill-opacity="0.7" fill-rule="evenodd" d="m703.050943,296.030701c4.34056,-0.45562 4.97315,-2.30173 4,-4.75c3.41635,-1.05597 6.32244,-2.79231 7.75,-6.5c0.55312,2.9948 2.71544,3.3076 5.25,3l0.25,16l-17.25,-7.75z" id="path2539"/>
   <path fill="#c80000" fill-rule="evenodd" stroke="#000000" stroke-miterlimit="4" d="m781.019693,271.311951c-13.32613,-0.39076 -24.66828,4.76258 -34.65625,9.53125c-11.41482,5.44991 -21.08241,10.1893 -30.875,8.96875c-4.70225,-0.74373 -6.94003,10.04426 -1.375,10.9375c13.95741,1.73965 25.78982,-4.64779 37,-10c11.21018,-5.35221 21.76365,-9.89017 34.125,-8.03125c4.05834,0.305 6.84872,-9.47038 1.625,-10.875c-1.98608,-0.29867 -3.94002,-0.47543 -5.84375,-0.53125z" id="path1658"/>
   <path fill="none" stroke="#a7a69c" stroke-width="1px" stroke-miterlimit="4" d="m516.806603,163.830991c-10.84015,57.04425 -27.07803,107.53568 -45.25483,145.664" id="path1597"/>
   <path fill="none" stroke="#a7a69c" stroke-width="1px" stroke-miterlimit="4" d="m502.664472,164.538101c-2.2278,52.11516 -17.42534,94.96621 -32.52691,137.88582" id="path1599"/>
   <path fill="#000000" fill-opacity="0.15" fill-rule="evenodd" d="m497.007612,162.416781l-2.12132,24.74873c1.1411,-4.15303 4.22364,-7.01175 11.27142,-7.22699c3.88305,-0.11858 9.21241,9.49422 11.59864,18.27725l8.94975,-36.5061c-9.45769,2.00291 -18.4558,5.8442 -29.69849,0.70711z" id="path16139"/>
   <path fill="none" stroke="#000000" stroke-width="1px" d="m463.773593,304.545241c17.50868,-29.2204 29.50204,-89.69461 33.94113,-145.664l57.27565,-6.36396l55.15433,7.77818l62.9325,-15.55635l133.64318,21.2132l26.16296,7.07107c-10.8028,20.40391 -18.40189,40.16709 -19.79899,58.68986l-6.36397,36.06245c0.29051,10.78749 2.08306,20.07295 4.24264,28.99137l-0.7071,72.1249l2.82843,23.33452l-70.00358,-49.49748l-132.22896,-43.13351l-48.08327,21.2132l-52.3259,76.36754l-18.38477,-7.07107l-28.28428,-85.55992z" id="path15256"/>
   <path fill="none" stroke="#000000" stroke-width="1px" stroke-miterlimit="4" d="m472.965982,327.172661c16.75667,-43.94686 39.62807,-103.79592 53.74012,-168.99853l53.03301,2.82843c-1.63213,50.00557 1.35025,94.243 9.89949,131.52186l-43.84062,33.94113l-24.04163,56.56854l-13.43503,14.14214l-15.55635,-9.19239l-19.79899,-60.81118z" id="path15254"/>
   <path fill="#dcdcd4" fill-rule="evenodd" d="m438.800943,619.530701l4,15l2,2l17,-2l20,30l60,32l60,-32l54,-37l26,-5l-54,-66l-96,-17l-48,17l-45,63z" id="path15168"/>
   <path fill="#a7a69c" fill-rule="evenodd" d="m476.832193,639.843201l0.9375,0.375c3.57239,-8.97987 5.71883,-15.13604 8,-21.53125c0,0 -5.37199,12.19367 -8.9375,21.15625z" id="path15216"/>
   <path fill="#a7a69c" fill-rule="evenodd" d="m481.300943,569.968201l-3,27.5l4,-27.375l-1,-0.125z" id="path15212"/>
   <path fill="#a7a69c" fill-rule="evenodd" d="m608.300943,561.999451c-0.80385,9.89319 0.40837,19.35965 2.40625,28.65625c1.99073,9.26323 4.77807,18.35198 7.125,27.5c0,0 -4.17736,-18.51061 -6.15625,-27.71875c-1.986,-9.24132 -3.16811,-18.61409 -2.375,-28.375l-1,-0.0625z" id="path15208"/>
   <g id="g15196">
    <path fill="none" stroke="#a7a69c" stroke-width="1px" stroke-miterlimit="4" id="path15176" d="m585.800942,555.030701c9.36135,60.14847 22.86421,82.31895 29.5,91"/>
    <path fill="none" stroke="#a7a69c" stroke-width="1px" stroke-miterlimit="4" id="path15178" d="m601.300942,560.030701c-3.39451,28.12131 9.9039,53.46046 22,79"/>
    <path fill="none" stroke="#a7a69c" stroke-width="1px" stroke-miterlimit="4" id="path15180" d="m615.300942,565.030701c0.53288,23.32785 8.08371,45.48605 16.5,67.5"/>
    <path fill="none" stroke="#a7a69c" stroke-width="1px" stroke-miterlimit="4" id="path15182" d="m630.800942,572.030701c-0.17516,18.8017 5.07431,36.51847 11.5,54"/>
    <path fill="none" stroke="#a7a69c" stroke-width="1px" stroke-miterlimit="4" id="path15184" d="m647.800942,588.530701c-2.23476,10.66667 0.61338,21.33333 5,32"/>
    <path fill="none" stroke="#a7a69c" stroke-width="1px" stroke-miterlimit="4" id="path15186" d="m506.800942,556.530701c-7.37508,29.66667 -13.39467,59.33333 -24.5,89"/>
    <path fill="none" stroke="#a7a69c" stroke-width="1px" stroke-miterlimit="4" id="path15188" d="m491.300942,563.530701c-4.36608,23.5 -7.29656,47 -18,70.5"/>
    <path fill="none" stroke="#a7a69c" stroke-width="1px" stroke-miterlimit="4" id="path15190" d="m473.300942,578.530701c-0.91576,16.33333 -1.15051,32.66667 -8.5,49"/>
    <path fill="none" stroke="#a7a69c" stroke-width="1px" stroke-miterlimit="4" id="path15192" d="m456.800942,601.030701c1.94386,8 3.12851,16 -1.5,24"/>
    <path fill="none" stroke="#a7a69c" stroke-width="1px" stroke-miterlimit="4" id="path15194" d="m445.300942,616.530701c3.35763,1.90452 4.47262,4.93036 2.5,9.5"/>
   </g>
   <path fill="#000000" fill-opacity="0.15" fill-rule="evenodd" d="m512.800943,555.530701l-32.82527,6.42304c0,0 -25.09957,56.75412 -19.36612,49.06174c2.58733,-3.47133 18.21714,13.13177 20.30451,9.05171c2.08159,-4.06875 -5.35941,-33.14117 5.20108,-44.29927c9.60283,-10.14625 24.34056,-17.3005 21.19129,6.47131c-3.48611,16.90516 -7.16318,33.30106 -12.06155,46.4402c-3.31536,8.89297 -11.19019,-11.70598 -15.94394,-6.64873l10,37l12.5,-39.5l10,-51l1,-13z" id="path15174"/>
   <path fill="#000000" fill-opacity="0.15" fill-rule="evenodd" d="m571.300943,551.530701l6,29l13,42l14.5,31.5l22,-49c-6.63692,-7.72874 -14.97841,18.39226 -21.27036,9.37504c-7.7481,-11.10408 -14.66286,-23.17596 -19.33609,-36.19316c-3.84004,-14.90354 7.8792,-13.13987 22.27211,-8.08118c4.52456,1.59026 9.88411,2.81259 12.69238,5.74236c10.45036,10.90252 -3.18826,22.48725 3.05579,30.89657c7.48253,10.07728 31.49681,0.31222 38.75301,6.83396l9.62984,-3.30283l-36.35249,-39.96834l-55.94419,-18.80242l-9,0z" id="path15170"/>
   <path fill="none" stroke="#000000" stroke-width="1px" d="m438.800943,619.530701l4,15" id="path15166"/>
   <path fill="#c2c199" fill-rule="evenodd" d="m814.800943,235.530701c0.375,8.25 -0.83299,25.84516 -7.5,33c-5.125,5.5 -11.125,5.25 -15,-1c-3.875,-6.25 -7.24144,-19.02415 -0.5,-24c7.24185,-5.3452 22.66608,-15.3462 23,-8z" id="path10466"/>
   <path fill="#dad9bb" fill-rule="evenodd" d="m465.187813,802.348411c83.68712,35.03055 154.16353,29.83655 239.7092,4.94975c8.62267,-2.50849 3.40646,-10.53243 4.10349,-19.86593c0.71648,-9.59385 4.68658,-21.8265 0.84626,-21.14626c-86.14252,15.16998 -186.85415,11.14693 -251.02291,-7.77818c-7.19349,-2.12156 -0.50393,40.96579 6.36396,43.84062z" id="path10460"/>
   <path fill="#000000" fill-opacity="0.15" fill-rule="evenodd" d="m686.512232,768.407291l24.04163,6.36396l-2.82843,14.14213l3.53554,12.72793l-2.82843,4.24264l-24.62997,6.79448c7.086,-14.53581 1.28038,-22.03983 -12.34655,-25.27768c-5.02515,-4.32238 -6.98801,-13.49986 0.91408,-16.16504l14.14213,-2.82842z" id="path10454"/>
   <path fill="#dad9bb" fill-rule="evenodd" d="m466.687813,876.848411c83.68712,35.03055 152.16353,30.33655 237.7092,5.44975c8.62267,-2.50849 7.28373,-41.22729 3.44975,-40.51219c-86.37773,16.11084 -181.85082,11.63361 -245.02291,-11.27818c-7.05043,-2.55711 -3.00393,43.46579 3.86396,46.34062z" id="path10462"/>
   <path fill="none" stroke="#000000" stroke-width="2" stroke-miterlimit="4" d="m465.187813,802.348411c83.68712,35.03055 154.16353,29.83655 239.7092,4.94975c8.62267,-2.50849 3.40646,-10.53243 4.10349,-19.86593c0.71648,-9.59385 4.68658,-21.8265 0.84626,-21.14626c-86.14252,15.16998 -186.85415,11.14693 -251.02291,-7.77818c-7.19349,-2.12156 -0.50393,40.96579 6.36396,43.84062z" id="path3393"/>
   <path fill="#dad9bb" fill-rule="evenodd" d="m431.300943,658.530701c4.83167,-49.36297 39.05659,-32.4011 47.5,-17c40.60221,74.05998 82.0122,47.25973 120,15c45.82118,-38.91194 98.51754,-57.70615 148,-86l25,107l-14,-4c-21.73293,41.72845 -3.52467,92.18995 -48,112c-27.70837,-8.78566 -45.766,-53.16321 -89,-45c-47.8415,9.03317 -93.88367,19.07973 -150,-1c-8.3926,-3.00307 -14.33194,7.83542 -18,17c-12.36841,-20.63899 -13.18818,-43.4322 -16.75375,-62.25664c-2.14523,-11.32574 -5.99827,-22.95206 -4.74625,-35.74336z" id="path10444"/>
   <path fill="#dad9bb" fill-rule="evenodd" d="m468.187813,955.348411c83.68712,35.03055 150.16353,32.83655 235.7092,7.94975c8.62267,-2.50849 7.76923,-47.30108 3.94975,-46.51219c-86.99703,17.96873 -180.06349,13.77162 -242.52291,-11.27818c-6.96087,-2.79171 -4.00393,46.96579 2.86396,49.84062z" id="path10464"/>
   <path fill="#ececee" fill-rule="evenodd" d="m494.300943,78.530701c-16.5,-2.75 -5.78767,-24.48659 14,-13c7.80798,4.53247 15.56975,14.27649 15.5,18c4.87613,2.06527 6.93477,-0.04771 26,-10c19.875,-10.375 29.29807,-14.08969 59.5,0.5c30.00333,14.49376 46.11679,15.26913 73,17.5c9.36322,-2.05704 36.65003,-28.24554 53.8929,-11.4053c10.54289,10.29671 -36.53234,27.49952 -31.3929,32.4053c24.84575,17.97538 51.39637,23.49406 67,26.5c24.14475,4.65133 47.8074,-7.6592 59.1193,-4.99523c25.77192,6.06933 11.72379,39.63465 -0.1193,41.99523c-18.7003,3.72737 -25.35147,0.94797 -40,-2c-11.74675,-2.364 -22.59687,-10.03594 -32.91311,-9.75728c-25.49348,0.70214 -22.34444,-4.9941 -41.08689,-6.24272c-16.98054,-1.13124 -27.95829,7.97612 -41,-4c0,0 -10.74427,16.9315 -42.01152,12.9573c-11.05015,-1.40451 -20.56238,6.44245 -25.98848,6.0427c-23.90213,-1.76092 -46.92876,-22.38244 -88.5,-9.5c-11.25325,3.48725 -14.42249,3.61119 -25.5,-3.5c-7.14358,-4.58581 -18.29139,-36.66769 -6,-55.5c7.26704,-11.13423 10.94033,-19.869 6.5,-26z" id="path8696"/>
   <path fill="#000000" fill-opacity="0.15" fill-rule="evenodd" d="m641.964502,626.278821l29.69849,-17.67767l72.12489,-28.28427l31.81981,67.17515l-26.16296,41.01219c0,0 -17.68704,-83.0059 -40.30508,-63.63961c-19.87197,17.01502 -27.24284,16.92493 -40.30509,6.36396c-8.30851,-6.71752 -26.87006,-4.94975 -26.87006,-4.94975z" id="path6922"/>
   <path fill="none" stroke="#000000" stroke-width="2" stroke-miterlimit="4" d="m431.300943,658.530701c4.83167,-49.36297 39.05659,-32.4011 47.5,-17c40.60221,74.05998 82.0122,47.25973 120,15c45.82118,-38.91194 98.51754,-57.70615 148,-86l25,107l-14,-4c-21.73293,41.72845 -3.52467,92.18995 -48,112c-27.70837,-8.78566 -45.766,-53.16321 -89,-45c-47.8415,9.03317 -93.88367,19.07973 -150,-1c-8.3926,-3.00307 -14.33194,7.83542 -18,17c-12.36841,-20.63899 -13.18818,-43.4322 -16.75375,-62.25664c-2.14523,-11.32574 -5.99827,-22.95206 -4.74625,-35.74336z" id="path3391"/>
   <path fill="#dcdcd4" fill-rule="evenodd" id="path14010" d="m709.846752,794.570241l-11.49509,-6.2024c-6.31776,-4.93037 -12.63552,-4.98053 -18.95327,-3.27929c-6.34478,-1.88098 -11.13517,-5.31633 -22.49176,-2.18549c-6.90808,-2.23811 -13.93793,-3.98917 -22.15818,-0.97864c-7.79439,-2.69566 -15.75437,-4.56345 -24.86425,-0.6817c-8.90501,-2.22083 -17.44144,-2.96733 -25.01933,0.12031c-5.48463,-2.10166 -12.90862,-3.03971 -25.03278,-1.15765c-8.66699,-3.83274 -17.33398,-3.97127 -26.00097,-2.48976c-6.09335,-3.36472 -12.75502,-5.30865 -21.49443,-2.05823c-5.98618,-4.64435 -13.25099,-5.45277 -21.90373,-2.09743c-5.38892,-3.34116 -11.38714,-3.63579 -18.10917,-0.31142c-3.38517,-3.37196 -8.24251,-3.79959 -15.62126,0.8156c-2.28826,-10.8423 -7.33056,-21.68461 -11.31371,-32.52691c6.84628,1.09236 11.45367,-0.6139 12.96976,-6.18427c6.31194,0.80163 12.81145,1.8846 16.54019,-1.18857c6.58983,7.21497 11.6074,4.99638 16.9326,4.62359c6.28449,2.85978 12.56899,6.51393 18.85348,4.25713c8.74331,1.92474 17.48663,4.59327 26.22994,1.39509c12.77327,3.04969 23.73163,2.46954 32.50569,-2.47921c9.25731,2.51054 17.62553,0.57564 25.55305,-3.56275c9.83808,3.52628 17.39591,0.21183 24.60151,-4.15933c7.39662,0.72493 14.79323,1.30118 22.18985,-0.59036c7.01903,6.05794 14.03807,6.98516 21.0571,7.82955c4.17762,8.26487 10.14893,12.94236 18.32557,13.20917c3.54122,6.26378 9.46299,9.55188 18.33615,9.15074c4.97746,5.67473 12.69851,3.11872 20.26254,1.03374c-7.93711,9.8995 -9.91534,19.79899 -9.8995,29.69849z"/>
   <path fill="#000000" fill-opacity="0.15" fill-rule="evenodd" d="m755.101593,670.826551c-13.82448,-44.75261 -38.75099,-61.75016 -71.41779,-59.39697l69.29647,-37.47666l25.45584,70.00357l-23.33452,26.87006z" id="path6924"/>
   <path fill="none" stroke="#000000" stroke-width="1px" stroke-miterlimit="4" id="path15264" d="m791.871143,267.068581c5.23854,12.72792 6.54627,25.45585 4.24264,38.18377"/>
   <path fill="#dad9bb" fill-rule="evenodd" d="m452.800943,316.530701c-5.18554,14.1595 -13.95816,42.18425 -25,66c-13.34603,28.78557 -7.79554,41.28858 -3,60c24.20406,94.44043 8.17348,123.18042 2,137c-12.86034,28.78839 -5.35235,49.46851 7.45119,46.02457c12.06966,-3.24654 25.55001,-26.29746 39.54881,-47.02457c22.49905,-33.31288 102.34665,-36.96372 158,-5c24.20736,13.90316 35.01749,73.8558 81,31c15.18564,-14.15305 33.56156,14.14848 42.63167,31.88189c6.80113,13.29723 -5.2111,32.72753 -7.63167,42.11811c-1.40701,4.0036 0.36652,8.23544 3.62567,11.52409c5.94388,5.99768 16.82903,8.85824 22.37433,1.47591c38.1656,-50.80902 26.27429,-98.95166 31,-132c9.1554,-64.02654 59.45986,-112.81983 40,-165c-6.1041,-16.3677 -11,-30 -11,-30c-9.6401,-49.80348 -36.17976,-96.03193 -37.98308,-55.02304c-0.57348,13.0414 6.51097,35.56502 10.98308,75.02304c0,0 -50.16358,-78.18265 -120,-94c-102.55609,-23.22807 -116.34348,-0.58422 -139,25c-31.69043,35.7855 -37.77004,136.09752 -71,11c-4.79547,-18.05302 -6.24264,-17.72183 -8,-28c-1.09547,-6.40702 -10.92107,4.13162 -16,18z" id="path6046"/>
   <path fill="none" stroke="#a7a69c" stroke-width="1px" stroke-miterlimit="4" d="m798.800943,272.780701l3.25,20.75" id="path5181"/>
   <path fill="none" stroke="#000000" stroke-width="2" stroke-miterlimit="4" d="m452.800943,316.530701c-5.18554,14.1595 -13.95816,42.18425 -25,66c-13.34603,28.78557 -7.79554,41.28858 -3,60c24.20406,94.44043 8.17348,123.18042 2,137c-12.86034,28.78839 -5.35235,49.46851 7.45119,46.02457c12.06966,-3.24654 25.55001,-26.29746 39.54881,-47.02457c22.49905,-33.31288 102.34665,-36.96372 158,-5c24.20736,13.90316 35.01749,73.8558 81,31c15.18564,-14.15305 33.56156,14.14848 42.63167,31.88189c6.80113,13.29723 -5.2111,32.72753 -7.63167,42.11811c-1.40701,4.0036 0.36652,8.23544 3.62567,11.52409c5.94388,5.99768 16.82903,8.85824 22.37433,1.47591c38.1656,-50.80902 26.27429,-98.95166 31,-132c9.1554,-64.02654 59.45986,-112.81983 40,-165c-6.1041,-16.3677 -11,-30 -11,-30c-16.7974,-75.99042 -35.28402,-84.50799 -37.43768,-56.59636c-1.27615,16.53911 8.65071,43.25131 10.43768,76.59636c0,0 -50.16358,-78.18265 -120,-94c-102.55609,-23.22807 -116.34348,-0.58422 -139,25c-31.69043,35.7855 -37.77004,136.09752 -71,11c-4.79547,-18.05302 -6.24264,-17.72183 -8,-28c-1.09547,-6.40702 -10.92107,4.13162 -16,18z" id="path3382"/>
   <path fill="#dcdcd4" fill-rule="evenodd" id="path15156" d="m606.800943,657.030701c-11.49031,5.63179 -10.4761,9.10908 -13.28556,12.74544c-6.45796,0.98316 -12.27415,3.38523 -15.94795,12.40836c-11.68421,-2.5808 -13.63151,3.82021 -16.11241,8.88784c-7.83886,-1.22108 -15.17304,-2.54933 -17.55833,4.83344c-8.56209,-5.17294 -14.47133,-2.985 -20.09785,-1.86751c-5.08893,-1.60954 -10.07696,-4.11457 -14.95891,-7.56106c-3.70713,-6.32309 -7.31565,-12.52143 -13.8209,-12.63625c-1.49458,-4.62991 -3.64157,-8.53636 -7.71809,-9.81026c14.16861,-37.61877 22.65434,-76.04938 27.5,-115c7.42657,0.85062 8.47472,-3.2177 12.05605,-4.93057c6.22997,3.06129 13.57381,3.89484 22.46879,1.62611c6.76872,4.53415 9.00727,1.51799 11.95286,-0.31974c3.1741,1.69354 6.3482,6.08037 9.5223,1.6242c5.36663,37.40371 18.66299,73.92633 36,110z"/>
   <path fill="none" stroke="#000000" stroke-width="2" stroke-miterlimit="4" d="m814.800943,235.530701c0.375,8.25 -0.83299,25.84516 -7.5,33c-5.125,5.5 -11.125,5.25 -15,-1c-3.875,-6.25 -7.24144,-19.02415 -0.5,-24c7.24185,-5.3452 22.66608,-15.3462 23,-8z" id="path3386"/>
   <path fill="none" stroke="#000000" stroke-width="1px" stroke-miterlimit="4" d="m792.578242,243.026951c5.76974,-22.86312 8.73281,-45.72624 3.53554,-68.58936" id="path15262"/>
   <path fill="none" stroke="#000000" stroke-width="2" stroke-miterlimit="4" d="m494.300943,78.530701c-16.5,-2.75 -5.78767,-24.48659 14,-13c7.80798,4.53247 15.56975,14.27649 15.5,18c4.87613,2.06527 6.93477,-0.04771 26,-10c19.875,-10.375 29.29807,-14.08969 59.5,0.5c30.00333,14.49376 46.11679,15.26913 73,17.5c9.36322,-2.05704 36.65003,-28.24554 53.8929,-11.4053c10.54289,10.29671 -36.53234,27.49952 -31.3929,32.4053c24.84575,17.97538 51.39637,23.49406 67,26.5c24.14475,4.65133 47.8074,-7.6592 59.1193,-4.99523c25.77192,6.06933 11.72379,39.63465 -0.1193,41.99523c-18.7003,3.72737 -25.35147,0.94797 -40,-2c-11.74675,-2.364 -22.59687,-10.03594 -32.91311,-9.75728c-25.49348,0.70214 -22.34444,-4.9941 -41.08689,-6.24272c-16.98054,-1.13124 -27.95829,7.97612 -41,-4c0,0 -10.74427,16.9315 -42.01152,12.9573c-11.05015,-1.40451 -20.56238,6.44245 -25.98848,6.0427c-23.90213,-1.76092 -46.92876,-22.38244 -88.5,-9.5c-11.25325,3.48725 -14.42249,3.61119 -25.5,-3.5c-7.14358,-4.58581 -18.29139,-36.66769 -6,-55.5c7.26704,-11.13423 10.94033,-19.869 6.5,-26z" id="path3388"/>
   <path fill="none" stroke="#000000" stroke-width="2" stroke-miterlimit="4" d="m466.687813,876.848411c83.68712,35.03055 152.16353,30.33655 237.7092,5.44975c8.62267,-2.50849 7.28373,-41.22729 3.44975,-40.51219c-86.37773,16.11084 -181.85082,11.63361 -245.02291,-11.27818c-7.05043,-2.55711 -3.00393,43.46579 3.86396,46.34062z" id="path3403"/>
   <path fill="#000000" fill-opacity="0.15" fill-rule="evenodd" d="m680.148273,846.189031c22.62742,-6.36396 26.16295,-3.53553 26.16295,-3.53553l4.94975,3.53553l-0.70711,19.79899l-3.53553,15.55635l-26.16295,7.07107c5.93961,-16.25137 15.07731,-33.43288 -0.70711,-42.42641z" id="path10456"/>
   <path fill="#dcdcd4" fill-rule="evenodd" id="path14003" d="m709.846762,846.896141c-10.29947,-2.78684 -17.77892,0.06636 -25.50148,2.43333c-9.87044,-2.09002 -17.11105,0.20299 -22.99095,4.76388c-6.99958,-2.2111 -14.22411,-3.52239 -22.54321,-0.45539c-8.71101,-1.03259 -14.94292,0.41392 -21.03854,1.99672c-8.20374,-2.6023 -16.96545,-2.97273 -26.50172,-0.24494c-7.49475,-2.91563 -15.84933,-4.11158 -26.00295,-1.70947c-9.86417,-2.70414 -18.15552,-3.04905 -25.35504,-1.7562c-8.60864,-3.82289 -17.8009,-5.3113 -27.7424,-3.80275c-4.65185,-2.04407 -6.78503,-5.09561 -17.61386,-4.66889c-4.43175,-2.82889 -10.11976,-4.40152 -17.21798,-4.56395c-4.12465,-2.78091 -9.69024,-4.6012 -17.80768,-4.72026c2.69361,-12.49222 2.46354,-24.98444 1.41422,-37.47666c6.71624,6.99374 11.86739,6.162 17.31784,6.8268c6.096,3.43842 12.19201,7.42034 18.28801,5.71162c8.23329,5.92615 12.97075,4.86064 18.7365,5.85169c9.85134,4.16254 19.28588,6.65786 27.80824,5.50446c10.40178,4.35581 20.80356,3.36579 31.20535,2.53166c9.08969,3.71938 19.17746,2.44837 29.5924,-0.45847c10.42213,1.18664 17.70169,-0.7693 25.59424,-2.11223c8.25153,0.2855 14.02028,-1.91178 19.65676,-4.24132c9.71701,2.84552 16.54185,-1.53939 23.69164,-5.11193c7.75886,2.5881 14.38283,-0.49833 20.82506,-4.49341c5.16978,0.16835 10.41458,0.11163 16.89265,-3.64491c-2.48409,15.363 -3.83224,30.34736 -0.7071,43.84062z"/>
   <path fill="#000000" fill-opacity="0.15" fill-rule="evenodd" d="m677.319843,921.142351l29.69849,-4.94975l3.53553,6.36397l-0.7071,24.74873l-2.12133,15.55635l-31.8198,7.77818c20.312,-37.50685 12.70706,-45.45459 1.41421,-49.49748z" id="path10458"/>
   <path fill="none" stroke="#000000" stroke-width="2" stroke-miterlimit="4" d="m468.187813,955.348411c83.68712,35.03055 150.16353,32.83655 235.7092,7.94975c8.62267,-2.50849 7.76923,-47.30108 3.94975,-46.51219c-86.99703,17.96873 -180.06349,13.77162 -242.52291,-11.27818c-6.96087,-2.79171 -4.00393,46.96579 2.86396,49.84062z" id="path3405"/>
   <path fill="#dcdcd4" fill-rule="evenodd" id="path14017" d="m709.846762,920.435251c-5.48927,-2.82667 -10.97854,-2.14979 -16.46781,3.02073c-5.39633,-2.22826 -10.79266,-0.0804 -16.189,2.96958c-7.48492,-3.60453 -11.95461,0.32899 -16.89004,3.09818c-9.3583,-3.63699 -16.30366,-1.24163 -23.04047,1.67514c-7.16197,-2.2487 -14.32394,-3.35131 -21.48592,0.99897c-7.43852,-1.21839 -13.88593,-2.93235 -26.41559,-1.60518c-8.31403,-0.97681 -15.98963,-0.67673 -22.97038,1.01302c-10.81249,-5.00997 -17.07646,-3.95525 -24.06859,-3.87141c-8.18534,-4.0759 -13.38924,-2.18891 -19.02006,-1.15578c-4.84181,-3.44473 -9.68362,-5.79189 -14.52543,-3.94667c-8.13828,-4.38042 -14.80723,-4.35284 -21.66516,-4.8922c-4.81457,-4.2305 -7.79712,-2.96493 -11.39347,-3.54076c-3.48395,-3.86389 -7.91707,-5.82944 -14.06257,-4.37023c1.77849,-12.96362 1.44087,-25.92725 1.41421,-38.89087c5.18866,5.47485 8.82297,6.5638 11.34667,5.37625c3.16724,3.14643 6.33447,4.43089 9.50171,4.92078c9.33351,4.11335 18.33681,7.23606 26.34493,7.37323c8.04282,2.9907 15.20006,4.21021 21.91298,4.54111c9.66851,6.11442 17.03783,3.73084 24.12674,3.39626c8.00047,4.24381 16.00094,3.86303 24.00141,1.4643c8.01392,2.67364 16.70925,2.62167 26.05649,-0.03797c8.70005,1.66306 17.40009,-0.23446 26.10014,-3.8904c9.95762,1.0686 19.40112,0.08069 28.02701,-4.17762c8.98044,0.76447 16.66681,-2.35324 24.34506,-5.49534c6.92815,-1.13127 12.79774,1.4131 22.18871,-7.10664c0.15236,15.16829 0.80035,29.84095 2.82843,43.13352z"/>
   <path fill="#000000" fill-opacity="0.15" fill-rule="evenodd" d="m609.437592,308.787881c-25.03933,-9.56119 -71.85841,114.39089 -103.23759,114.5513c-24.583,0.12567 -43.84062,-94.75231 -43.84062,-94.75231c0,0 11.5876,53.34201 17.05319,71.39563c8.63252,28.51447 15.9064,59.0397 32.44429,59.41912c27.5196,0.6476 39.28103,-31.45619 54.83584,-72.81727c17.22124,-45.79219 22.69093,-65.13772 42.74489,-77.79647z" id="path3408"/>
   <path fill="#000000" fill-opacity="0.15" fill-rule="evenodd" d="m609.437592,308.787881c-25.03933,-9.56119 -71.85841,114.39089 -103.23759,114.5513c-24.583,0.12567 -43.84062,-94.75231 -43.84062,-94.75231c0,0 11.5876,53.34201 17.05319,71.39563c8.63252,28.51447 12.37087,42.57523 28.90876,42.95465c27.5196,0.6476 32.81656,-14.99172 48.37137,-56.3528c17.22124,-45.79219 32.69093,-65.13772 52.74489,-77.79647z" id="path5156"/>
   <path fill="#000000" fill-opacity="0.15" fill-rule="evenodd" d="m789.066073,361.101171c13.66297,39.12838 7.83868,71.05436 0.80562,108.19481c-3.91574,20.67834 -34.36912,69.84313 -35.87964,95.89724c-2.94017,50.71342 29.15137,44.70705 29.22446,69.62788c0.04395,14.98146 -2.02826,31.42915 -9.41557,56.7096c38.1656,-50.80902 26.27429,-98.95166 31,-132c9.1554,-64.02654 59.45986,-112.81983 40,-165c-6.1041,-16.3677 -11,-30 -11,-30c-10.65154,-28.43569 -13.40794,-52.51113 -19.51119,-62.81658c-15.08683,-25.47439 -25.958,6.48257 -7.48881,82.81658c0,0 -6.37172,-9.93067 -17.73487,-23.42953z" id="path5158"/>
   <path fill="#000000" fill-opacity="0.15" fill-rule="evenodd" d="m803.489523,495.896751c-13.9505,85.82182 -17.58618,169.57431 -7.64731,152.92424c18.48047,-30.95938 5.58655,-65.70761 8.95873,-89.29029c9.1554,-64.02654 59.45986,-112.81983 40,-165c-6.1041,43.02927 -37.08785,28.51607 -41.31142,101.36605z" id="path5162"/>
   <path fill="#000000" fill-opacity="0.08" fill-rule="evenodd" d="m674.300943,550.530701c0.36558,13.04692 17.74968,53.34558 72.5,-31.5c18.53996,-28.73104 18.97041,-59 21,-88.5c-25.17066,46.99521 -94.6149,80.21105 -93.5,120z" id="path5165"/>
   <path fill="#ffffff" fill-opacity="0.39" fill-rule="evenodd" d="m679.300943,584.030701c-24.54619,-14.10589 -41.8436,-46.11807 -89.5,-34c41.10348,-3.20695 65.19473,36.11055 89.5,34z" id="path5167"/>
   <path fill="#ffffff" fill-opacity="0.392157" fill-rule="evenodd" d="m425.800943,606.030701c17.10025,-2.43465 33.46412,-59.74534 84,-56c-53.52657,2.98068 -71.12728,91.44239 -84,56z" id="path5169"/>
   <path fill="#ffffff" fill-opacity="0.39" fill-rule="evenodd" d="m465.800943,317.030701c23.99115,58.19897 25.80136,80.74187 39.41985,79.93347c21.59718,-1.28202 20.46965,-63.26239 65.08015,-91.93347c-35.55371,34.58516 -42.28361,109.54688 -65.57324,108.54746c-12.07504,-0.51817 -20.35246,-25.8051 -38.92676,-96.54746z" id="path6044"/>
   <path fill="#ffffff" fill-opacity="0.39" fill-rule="evenodd" d="m470.137563,725.980881c20.60614,16.64555 97.43629,20.85965 151.32085,1.41422c43.59726,-15.73304 36.80207,-113.65765 8.48528,-77.07465c-46.35849,59.89141 -121.64271,70.13908 -156.97771,9.1924c-18.11356,-31.24271 -21.78671,51.1536 -2.82842,66.46803z" id="path6926"/>
   <path fill="#000000" fill-opacity="0.15" fill-rule="evenodd" d="m697.300943,721.030701c16.80613,-19.15603 38.01828,-36.65981 45,-59.5l6.5,23.5l-51.5,36z" id="path8676"/>
   <path fill="#dcdcd4" fill-rule="evenodd" id="path12222" d="m772.779262,692.039751c-1.95043,-1.02691 -3.75827,-1.26233 -3.35747,-3.22973c-2.49565,2.06724 -4.26485,1.41967 -6.07273,-0.09819c-1.5927,-1.33721 -1.86139,-1.91958 -0.91354,-4.02842c-2.58588,1.53872 -4.20478,0.56137 -5.42075,-1.66586c-1.20975,-2.21583 -1.13693,-0.46452 0.91227,-3.17165c-1.83814,1.10101 -2.63154,-0.94017 -4.00384,-1.00374c-0.94135,-0.04361 -0.76172,-2.88966 -1.65004,-3.06586c-22.31152,18.61559 -45.83435,40.86513 -66.46803,54.44723c2.47241,-0.32018 4.46256,0.00265 5.52407,1.56367c3.20654,2.61535 3.63778,5.23071 3.58334,7.84606c1.62922,-0.55468 3.19558,-1.71702 4.88765,-0.61665c3.37574,2.19528 4.38478,4.20301 5.54568,6.30452c2.42844,-0.04497 3.58359,-1.34727 7.88227,0.76053c3.10708,1.52352 3.71269,3.09863 3.74509,5.16907c2.26385,-0.39223 4.69918,-1.18458 5.60145,1.60021c13.96167,-20.2704 25.48794,-40.54079 50.20458,-60.81119z"/>
   <path fill="#000000" fill-opacity="0.15" fill-rule="evenodd" d="m610.851813,74.381981l23.33452,10.25305l40.65864,6.01041l9.89949,0.35355l6.71752,-4.59619c-10.23824,9.03196 -15.90517,23.4906 -5.3033,31.11269c6.01041,0.16621 12.02081,1.22659 18.03122,-4.94974l27.93072,15.55635l43.48707,11.3137c0,0 28.35608,-2.38567 17.67767,0c-15.08348,3.36981 -40.14619,9.09097 -62.93251,-5.3033c-34.95967,-22.08425 -44.95213,-5.71419 -54.44722,20.5061c-2.27103,-1.43312 -6.89872,4.45214 -15.45605,6.87504c-13.37458,3.78686 -31.2474,4.72708 -25.55614,-0.86463c12.02961,-11.81918 53.16065,-34.75526 16.61701,-65.05383c-10.62968,-8.81313 -28.15177,-7.34305 -40.65864,-21.2132z" id="path8678"/>
   <path fill="#000000" fill-opacity="0.15" fill-rule="evenodd" d="m684.744463,90.998991l6.71752,-4.59619c-10.23824,9.03196 -15.90517,23.4906 -5.3033,31.11269c6.01041,0.16621 12.02081,1.22659 18.03122,-4.94974l0.17678,0l5.12652,3.35875c-19.07411,2.87226 -27.97038,11.56042 -33.94112,21.92031c0.02122,-15.43464 6.52042,-29.69146 -7.77818,-47.7297l7.24785,0.88388l9.72271,0z" id="path8682"/>
   <path fill="#000000" fill-opacity="0.15" fill-rule="evenodd" d="m813.800943,134.530701c16.96625,6.40506 24.19964,19.76216 22.5,39.5l7,-10.5l2,-16.5l-6,-10l-17.5,-3.5l-8,1z" id="path8686"/>
   <path fill="#000000" fill-opacity="0.15" fill-rule="evenodd" d="m579.032002,165.952311c0.52792,39.12658 2.469,78.25315 9.54594,117.37973c-6.47589,-68.77696 -7.18587,-106.23009 14.49444,-100.27264c7.04291,1.30297 16.37325,5.23984 26.1642,-4.37917c5.93721,-5.83294 22.25394,0.91886 35.08,1.25689c8.47849,0.22345 12.61651,-6.01542 21.29616,-7.44928c26.67305,-4.40634 50.37594,-2.47164 74.4386,1.24265c8.99789,1.3889 16.91415,3.94757 23.52648,7.40966c24.42427,11.74572 -1.4034,61.25766 -1.29939,69.37985c0.05926,4.62781 7.00409,21.82766 9.14953,36.63686c2.03885,14.07341 -0.69269,25.74557 -1.4989,31.46623c-2.08346,14.78363 -10.92605,22.6522 -16.06277,22.77899c9.13497,13.4983 21.22469,32.32 31.29556,42.27003c6.14639,6.07264 -6.71424,-63.11061 -10.34921,-75.50409c7.67685,0.21159 -0.25187,-33.1585 -2.46118,-37.58222c-7.48183,-14.98095 -1.2308,-29.27128 -0.61194,-29.0482c4.77784,1.7223 8.20227,-49.94183 7.20269,-48.00813l-4.24264,-17.67767l-28.28427,-11.3137l-26.87006,-0.70711l-16.97056,-5.65686l-21.21321,0l-12.02081,2.82843l-13.43503,-7.07107l-11.31371,9.8995l-20.5061,4.24264l-15.55634,-0.70711l-18.38478,5.65686l-31.1127,-7.07107z" id="path16141"/>
   <path fill="#000000" fill-opacity="0.15" fill-rule="evenodd" d="m497.300943,156.030701c7.60016,3.8833 26.91816,-4.23305 48.14035,-3.88362c23.52342,0.38732 51.97054,13.18465 64.85965,12.88362c-22.94293,-2.6644 -33.52241,-18.40862 -65.5,-20.5c-28.27904,-1.84949 -18.375,10.375 -47.5,11.5z" id="path8688"/>
   <path fill="#ffffff" fill-opacity="0.39" fill-rule="evenodd" d="m520.800943,139.530701c15.19165,-8.48359 30.9754,-8.67774 47.5,1.5c-15.83333,-2.43867 -31.66667,-3.06056 -47.5,-1.5z" id="path8690"/>
   <path fill="#000000" fill-opacity="0.15" fill-rule="evenodd" d="m503.300943,63.530701c5.69412,7.5 11.86659,15 8.5,22.5c4,-3.37674 8,-1.89323 12,-1.5" id="path8692"/>
   <path fill="none" stroke="#000000" stroke-width="2" stroke-miterlimit="4" d="m511.800943,86.030701c4,-3.37674 8,-1.89323 12,-1.5" id="path8694"/>
   <path fill="#ffffff" fill-opacity="0.39" fill-rule="evenodd" d="m481.451262,788.206281c1.62877,-11.59444 107.27079,8.43871 105.35891,14.14213c-4.68696,13.98194 -108.15827,5.78522 -105.35891,-14.14213z" id="path10448"/>
   <path fill="#ffffff" fill-opacity="0.39" fill-rule="evenodd" d="m481.451262,858.206281c1.62877,-11.59444 118.11821,13.95993 116.67262,19.79898c-4.68696,18.93169 -119.47198,0.12837 -116.67262,-19.79898z" id="path10450"/>
   <path fill="#ffffff" fill-opacity="0.39" fill-rule="evenodd" d="m482.530442,935.682181c0.76109,-5.41781 24.41554,-0.35903 50.40064,4.58346c29.62456,5.63473 61.85447,11.96609 59.20091,17.33684c-8.63915,17.48547 -112.40091,-1.99295 -109.60155,-21.9203z" id="path10452"/>
   <path fill="#000000" fill-opacity="0.15" fill-rule="evenodd" d="m794.699573,241.612741c14.70641,-0.31696 15.67114,11.39004 15.55635,24.04163l3.53553,-16.97057l0,-14.84924l-12.02081,1.41421l-7.07107,6.36397z" id="path10468"/>
   <path fill="none" stroke="#000000" stroke-width="1px" d="m752.273163,675.776301c-22.31152,18.61559 -45.83435,40.86513 -66.46803,54.44723" id="path12218"/>
   <path fill="none" stroke="#000000" stroke-width="1px" d="m772.779262,692.039751c-24.71664,20.2704 -36.24291,40.54079 -50.20458,60.81119" id="path12220"/>
   <path fill="none" stroke="#a7a69c" stroke-width="1px" d="m754.050943,680.030701c-19.73789,17.67878 -39.46206,35.37127 -60.5,51.75" id="path13102"/>
   <path fill="none" stroke="#a7a69c" stroke-width="1px" stroke-miterlimit="4" d="m765.300943,691.280701c-17.39546,18.75 -33.25847,37.5 -46,56.25" id="path13104"/>
   <path fill="none" stroke="#a7a69c" stroke-width="1px" stroke-miterlimit="4" d="m757.550943,692.530701l-39.75,47" id="path13106"/>
   <path fill="none" stroke="#a7a69c" stroke-width="1px" stroke-miterlimit="4" d="m755.050943,685.280701l-31.5,28.25" id="path13108"/>
   <path fill="none" stroke="#a7a69c" stroke-width="1px" stroke-miterlimit="4" d="m743.300943,701.780701l-32.75,36.75" id="path13110"/>
   <path fill="none" stroke="#a7a69c" stroke-width="1px" stroke-miterlimit="4" d="m715.300943,719.530701l-15,13.5" id="path13112"/>
   <path fill="none" stroke="#000000" stroke-width="1px" d="m707.018333,877.301731c0.15236,15.16829 0.80035,29.84095 2.82843,43.13352" id="path13991"/>
   <path fill="none" stroke="#000000" stroke-width="1px" d="m460.945173,796.691561c1.04932,12.49222 1.27939,24.98444 -1.41422,37.47666" id="path13993"/>
   <path fill="none" stroke="#000000" stroke-width="1px" d="m710.553863,803.055521c-2.48409,15.363 -3.83224,30.34736 -0.7071,43.84062" id="path13995"/>
   <path fill="none" stroke="#000000" stroke-width="1px" d="m445.388823,741.537231c3.98315,10.8423 9.02545,21.68461 11.31371,32.52691" id="path13997"/>
   <path fill="none" stroke="#000000" stroke-width="1px" d="m709.846752,794.570241c-0.81759,-9.8995 2.71853,-19.79899 9.8995,-29.69849" id="path14001"/>
   <path fill="none" stroke="#a7a69c" stroke-width="1px" stroke-miterlimit="4" d="m467.800943,801.030701c-0.32729,11.67271 -0.8548,23.1452 -2.5,33.5" id="path14957"/>
   <path fill="none" stroke="#a7a69c" stroke-width="1px" stroke-miterlimit="4" d="m503.300943,813.030701l-1.5,32" id="path14959"/>
   <path fill="none" stroke="#a7a69c" stroke-width="1px" stroke-miterlimit="4" d="m544.800943,821.030701l-2,30.5" id="path14961"/>
   <path fill="none" stroke="#a7a69c" stroke-width="1px" stroke-miterlimit="4" d="m591.800943,825.030701l1,30" id="path14963"/>
   <path fill="none" stroke="#a7a69c" stroke-width="1px" stroke-miterlimit="4" d="m638.800943,819.530701l3.5,33" id="path14965"/>
   <path fill="none" stroke="#a7a69c" stroke-width="1px" stroke-miterlimit="4" d="m684.300943,811.530701c-1.76966,12.85908 -0.562,25.47383 3,37" id="path14967"/>
   <path fill="none" stroke="#a7a69c" stroke-width="1px" stroke-miterlimit="4" d="m470.300943,876.530701c-0.19737,12.77193 -0.96987,24.39359 -2.5,34.5" id="path14969"/>
   <path fill="none" stroke="#a7a69c" stroke-width="1px" stroke-miterlimit="4" d="m499.300943,887.030701l-2.5,31" id="path14971"/>
   <path fill="none" stroke="#a7a69c" stroke-width="1px" stroke-miterlimit="4" d="m537.800943,896.030701l-2,29" id="path14973"/>
   <path fill="none" stroke="#a7a69c" stroke-width="1px" stroke-miterlimit="4" d="m576.300943,899.530701l0.5,30.5" id="path14975"/>
   <path fill="none" stroke="#a7a69c" stroke-width="1px" stroke-miterlimit="4" d="m610.300943,899.030701l1,32" id="path14977"/>
   <path fill="none" stroke="#a7a69c" stroke-width="1px" stroke-miterlimit="4" d="m649.300943,894.030701l3.5,33" id="path14979"/>
   <path fill="none" stroke="#a7a69c" stroke-width="1px" stroke-miterlimit="4" d="m686.800943,884.530701c-0.14026,12.82453 0.19533,25.49044 4,37" id="path14981"/>
   <path fill="none" stroke="#a7a69c" stroke-width="1px" stroke-miterlimit="4" d="m700.300943,806.530701c-7.36901,14.78967 -3.7835,27.5945 -2,39" id="path14983"/>
   <path fill="#a7a69c" fill-rule="evenodd" d="m696.300943,883.999451c-0.68952,11.24599 1.06457,21.25233 3,31.125c0,0 -2.68094,-19.95659 -2,-31.0625l-1,-0.0625z" id="path14985"/>
   <path fill="none" stroke="#a7a69c" stroke-width="1px" stroke-miterlimit="4" d="m674.800943,888.530701l5.5,36.5" id="path14989"/>
   <path fill="none" stroke="#a7a69c" stroke-width="1px" stroke-miterlimit="4" d="m664.300943,891.030701l5,35" id="path14991"/>
   <path fill="#a7a69c" fill-rule="evenodd" d="m656.300943,898.093201l3.5,30.5l1,-0.125l-4.5,-30.375z" id="path14993"/>
   <path fill="#a7a69c" fill-rule="evenodd" d="m638.582193,895.624451l-1,0.125l3.53125,27.9375l-2.53125,-28.0625z" id="path14997"/>
   <path fill="none" stroke="#a7a69c" stroke-width="1px" stroke-miterlimit="4" d="m628.529482,896.393611l3.18198,33.58758" id="path14999"/>
   <path fill="none" stroke="#a7a69c" stroke-width="1px" stroke-miterlimit="4" d="m619.337092,898.575601l2.12132,31.40559" id="path15001"/>
   <path fill="none" stroke="#a7a69c" stroke-width="1px" stroke-miterlimit="4" d="m598.123883,900.282701c-1.41421,26.51651 2.12132,30.40559 2.12132,30.40559" id="path15005"/>
   <path fill="none" stroke="#a7a69c" stroke-width="1px" stroke-miterlimit="4" d="m589.638602,900.636261l-1.06066,29.69848" id="path15007"/>
   <path fill="none" stroke="#a7a69c" stroke-width="1px" stroke-miterlimit="4" d="m567.364742,900.636261l-2.47488,27.93071" id="path15009"/>
   <path fill="none" stroke="#a7a69c" stroke-width="1px" stroke-miterlimit="4" d="m557.465242,897.454281l-2.12132,29.34493" id="path15011"/>
   <path fill="#a7a69c" fill-rule="evenodd" d="m545.644693,927.124451l1,0.0625l2.125,-26.5l-3.125,26.4375z" id="path15013"/>
   <path fill="none" stroke="#a7a69c" stroke-width="1px" stroke-miterlimit="4" d="m526.706103,892.504531l-0.35355,33.3198" id="path15015"/>
   <path fill="#a7a69c" fill-rule="evenodd" d="m516.675943,922.499451l0.96875,0.09375l2.84375,-27.90625l-3.8125,27.8125z" id="path15017"/>
   <path fill="#a7a69c" fill-rule="evenodd" d="m509.582193,889.968201l-2.46875,24.0625l3.46875,-23.9375l-1,-0.125z" id="path15019"/>
   <path fill="#a7a69c" fill-rule="evenodd" d="m486.269693,916.530701l0.96875,0.03125l1.4375,-26.5l-2.40625,26.46875z" id="path15021"/>
   <path fill="none" stroke="#a7a69c" stroke-width="1px" stroke-miterlimit="4" d="m479.329943,879.776611l-2.47487,32.88046" id="path15023"/>
   <path fill="none" stroke="#a7a69c" stroke-width="1px" stroke-miterlimit="4" d="m476.501523,803.409071l-3.88909,33.23402" id="path15033"/>
   <path fill="none" stroke="#a7a69c" stroke-width="1px" stroke-miterlimit="4" d="m484.279693,807.298161l-1.41421,31.1127" id="path15035"/>
   <path fill="none" stroke="#a7a69c" stroke-width="1px" stroke-miterlimit="4" d="m494.532742,809.773031l-3.18198,31.46626" id="path15037"/>
   <path fill="none" stroke="#a7a69c" stroke-width="1px" stroke-miterlimit="4" d="m512.210413,815.076331l-0.35355,31.1127" id="path15039"/>
   <path fill="#a7a69c" fill-rule="evenodd" d="m520.550943,817.530701l-1.0625,24.75l2.0625,-24.71875l-1,-0.03125z" id="path15041"/>
   <path fill="#a7a69c" fill-rule="evenodd" d="m527.269693,848.280701l1,0.03125l0.71875,-22.96875l-1.71875,22.9375z" id="path15043"/>
   <path fill="none" stroke="#a7a69c" stroke-width="1px" stroke-miterlimit="4" d="m536.605593,821.440301c0,0 -3.88908,26.87005 -2.47487,27.93071" id="path15045"/>
   <path fill="none" stroke="#a7a69c" stroke-width="1px" stroke-miterlimit="4" d="m553.576163,822.768721l-0.35356,28.37006" id="path15047"/>
   <path fill="none" stroke="#a7a69c" stroke-width="1px" stroke-miterlimit="4" d="m563.829203,823.915171l-1.41421,28.99138" id="path15049"/>
   <path fill="#a7a69c" fill-rule="evenodd" d="m571.800943,828.186951l1.0625,24.375l1,-0.03125l-2.0625,-24.34375z" id="path15051"/>
   <path fill="none" stroke="#a7a69c" stroke-width="1px" stroke-miterlimit="4" d="m582.213982,824.622281l0.35355,27.57716" id="path15053"/>
   <path fill="#a7a69c" fill-rule="evenodd" d="m600.800943,829.968201l1.40625,23.6875l1,-0.0625l-2.40625,-23.625z" id="path15055"/>
   <path fill="none" stroke="#a7a69c" stroke-width="1px" stroke-miterlimit="4" d="m612.619573,823.208061l-0.35355,30.75915" id="path15057"/>
   <path fill="#a7a69c" fill-rule="evenodd" d="m621.675943,828.905701l2.46875,24.75l1,-0.09375l-3.46875,-24.65625z" id="path15059"/>
   <path fill="none" stroke="#a7a69c" stroke-width="1px" stroke-miterlimit="4" d="m631.711462,820.026081l0,32.52691" id="path15061"/>
   <path fill="#a7a69c" fill-rule="evenodd" d="m649.957193,826.030701l0.34375,25.46875l1,0l-0.34375,-25.46875l-1,0z" id="path15063"/>
   <path fill="none" stroke="#a7a69c" stroke-width="1px" stroke-miterlimit="4" d="m659.995733,816.137001l3.18198,35.70889" id="path15065"/>
   <path fill="#a7a69c" fill-rule="evenodd" d="m671.519693,812.249451c-0.21385,10.02391 -0.24642,20.05457 1.40625,30.125c0,0 -0.61982,-20.11424 -0.40625,-30.125l-1,0z" id="path15067"/>
   <path fill="none" stroke="#a7a69c" stroke-width="1px" stroke-miterlimit="4" d="m459.530953,736.587481c5.74854,12.66246 8.97249,24.69376 10.96016,36.416" id="path15086"/>
   <path fill="none" stroke="#a7a69c" stroke-width="1px" stroke-miterlimit="4" d="m476.147963,734.819721c7.52777,12.84577 10.1148,25.69154 13.08148,38.53731" id="path15088"/>
   <path fill="#a7a69c" fill-rule="evenodd" d="m501.394693,742.530701l-1,0.15625c0.09616,0.57698 0.48412,2.47607 1.03125,5.0625c0.54713,2.58643 1.25242,5.81771 1.9375,9c1.37016,6.36459 2.6875,12.46875 2.6875,12.46875c0,0 -0.34887,-6.29292 -1.71875,-12.65625c-0.68494,-3.18166 -1.35958,-6.44697 -1.90625,-9.03125c-0.54667,-2.58428 -0.95064,-4.51633 -1.03125,-5z" id="path15090"/>
   <path fill="none" stroke="#a7a69c" stroke-width="1px" stroke-miterlimit="4" d="m519.635033,745.426321l3.88909,29.34493" id="path15092"/>
   <path fill="none" stroke="#a7a69c" stroke-width="1px" stroke-miterlimit="4" d="m538.373362,744.719211l2.82843,31.81981" id="path15094"/>
   <path fill="none" stroke="#a7a69c" stroke-width="1px" stroke-miterlimit="4" d="m559.940122,746.133421l0,33.58758" id="path15096"/>
   <path fill="none" stroke="#a7a69c" stroke-width="1px" stroke-miterlimit="4" d="m579.032002,742.951441l-2.82843,36.416" id="path15098"/>
   <path fill="none" stroke="#a7a69c" stroke-width="1px" stroke-miterlimit="4" d="m599.891652,740.476571l-4.94975,38.18377" id="path15100"/>
   <path fill="none" stroke="#a7a69c" stroke-width="1px" stroke-miterlimit="4" d="m619.690642,734.819721l-4.94975,44.90128" id="path15102"/>
   <path fill="none" stroke="#a7a69c" stroke-width="1px" stroke-miterlimit="4" d="m641.964502,734.819721l-8.83883,45.96194" id="path15104"/>
   <path fill="none" stroke="#a7a69c" stroke-width="1px" stroke-miterlimit="4" d="m659.995733,741.537231l-8.48528,39.59798" id="path15106"/>
   <path fill="none" stroke="#a7a69c" stroke-width="1px" stroke-miterlimit="4" d="m678.734062,754.618711l-7.77818,28.63782" id="path15108"/>
   <path fill="none" stroke="#a7a69c" stroke-width="1px" stroke-miterlimit="4" d="m693.229753,763.457541c-4.165,6.95322 -5.59815,13.90644 -6.01042,20.85966" id="path15110"/>
   <path fill="none" stroke="#a7a69c" stroke-width="1px" stroke-miterlimit="4" d="m706.664773,767.700181c-5.08899,7.18892 -6.56803,14.37784 -6.0104,21.56675" id="path15112"/>
   <path fill="none" stroke="#a7a69c" stroke-width="1px" stroke-miterlimit="4" d="m469.076903,736.233931c4.74536,11.09641 8.67776,22.7348 10.6066,35.70889" id="path15114"/>
   <path fill="#a7a69c" fill-rule="evenodd" d="m490.425943,738.499451l-0.96875,0.25l4.59375,18.8125l-3.625,-19.0625z" id="path15116"/>
   <path fill="none" stroke="#a7a69c" stroke-width="1px" stroke-miterlimit="4" d="m449.631462,741.744341c7.06462,8.51143 9.16008,19.51052 11.66726,29.84493" id="path15118"/>
   <path fill="none" stroke="#a7a69c" stroke-width="1px" stroke-miterlimit="4" d="m510.796202,743.305001l3.88908,31.11269" id="path15120"/>
   <path fill="#a7a69c" fill-rule="evenodd" d="m530.082193,750.405701l2.125,26.1875l1,-0.09375l-3.125,-26.09375z" id="path15122"/>
   <path fill="#a7a69c" fill-rule="evenodd" d="m549.488443,746.124451l-1,0.03125l0.6875,25.4375l0.3125,-25.46875z" id="path15124"/>
   <path fill="#a7a69c" fill-rule="evenodd" d="m567.582193,779.343201l1,0.03125l1.0625,-29.6875l-2.0625,29.65625z" id="path15126"/>
   <path fill="#a7a69c" fill-rule="evenodd" d="m588.425943,741.843201l-3.875,32.15625l4.875,-32.0625l-1,-0.09375z" id="path15128"/>
   <path fill="#a7a69c" fill-rule="evenodd" d="m603.988443,779.655701l1,0.125l4.59375,-33.9375l-5.59375,33.8125z" id="path15130"/>
   <path fill="#a7a69c" fill-rule="evenodd" d="m630.144693,735.093201l-6,37.84375l7,-37.6875l-1,-0.15625z" id="path15132"/>
   <path fill="none" stroke="#a7a69c" stroke-width="1px" stroke-miterlimit="4" d="m650.803342,739.415911l-7.77818,41.7193" id="path15134"/>
   <path fill="#a7a69c" fill-rule="evenodd" d="m669.050943,749.468201l-6.71875,26.25l7.6875,-26l-0.96875,-0.25z" id="path15136"/>
   <path fill="none" stroke="#000000" stroke-width="1px" id="path15164" d="m570.800943,547.030701c5.36663,37.40371 18.66299,73.92633 36,110m-119.5,7c14.16861,-37.61877 22.65434,-76.04938 27.5,-115"/>
   <path fill="#000000" fill-opacity="0.15" fill-rule="evenodd" d="m571.300943,551.530701l6,29l13,42l14.5,31.5l11.5,-7.5c-20.14254,-23.45615 -37.16936,-57.40168 -40,-92.5l-5,-2.5z" id="path15172"/>
   <path fill="none" stroke="#a7a69c" stroke-width="1px" stroke-miterlimit="4" d="m540.848232,548.143521l-1.76776,144.9569" id="path15220"/>
   <path fill="none" stroke="#a7a69c" stroke-width="1px" stroke-miterlimit="4" d="m554.636822,548.497081c4.39557,44.96498 12.12312,89.26356 21.2132,133.28963" id="path15222"/>
   <path fill="none" stroke="#a7a69c" stroke-width="1px" stroke-miterlimit="4" d="m525.998992,546.022201c-4.11968,46.51277 -8.37708,93.00258 -18.03122,138.59293" id="path15224"/>
   <path fill="none" stroke="#a7a69c" stroke-width="1px" stroke-miterlimit="4" d="m562.061442,547.436421c7.68568,41.02541 16.53876,81.88404 30.75914,121.97592" id="path15226"/>
   <path fill="none" stroke="#a7a69c" stroke-width="1px" stroke-miterlimit="4" d="m548.272862,546.022201c0.80212,47.96541 3.91646,95.93082 8.48528,143.89623" id="path15228"/>
   <path fill="none" stroke="#a7a69c" stroke-width="1px" stroke-miterlimit="4" d="m532.009403,546.729311c-0.4143,48.55467 -4.0804,97.10933 -9.19239,145.664" id="path15230"/>
   <path fill="#a7a69c" fill-rule="evenodd" d="m511.707193,600.061951c-3.31854,24.14093 -8.01188,48.23249 -16.9375,72.34375l0.9375,0.375c5.04823,-13.63705 8.74891,-27.27418 11.61242,-40.90601l4.38758,-31.81274z" id="path15232"/>
   <path fill="#a7a69c" fill-rule="evenodd" d="m533.925943,643.936951c0,0 -1.00551,9.98595 -1.14426,14.55242c-0.38844,12.78439 -1.4323,23.59214 -2.66824,33.85383l0.96875,0.125c1.68002,-13.94875 3.03275,-28.96563 2.84375,-48.53125z" id="path15234"/>
   <path fill="#a7a69c" fill-rule="evenodd" d="m558.394693,620.280701c1.09524,24.01177 4.5533,43.24656 7.40625,63.6875l1,-0.125c-2.0085,-14.39054 -4.32976,-28.14913 -5.91054,-43.37201l-2.49571,-20.19049z" id="path15236"/>
   <path fill="#a7a69c" fill-rule="evenodd" d="m573.582193,627.030701c2.38665,20.80798 6.76776,33.65986 10.96875,47.125l0.96875,-0.28125c-2.3543,-7.54608 -4.75529,-14.85958 -6.82979,-23.46951l-5.10771,-23.37424z" id="path15238"/>
   <path fill="#a7a69c" fill-rule="evenodd" d="m592.957193,643.124451c0,0 3.47932,12.76634 6.875,18.40625l0.84375,-0.5c-3.367,-5.59229 -6.22958,-11.42512 -7.71875,-17.90625z" id="path15240"/>
   <path fill="none" stroke="#000000" stroke-width="1px" d="m462.359382,870.644881c0.9451,14.14442 0.20316,27.60182 -0.70711,39.89087" id="path15252"/>
   <path fill="#000000" fill-opacity="0.15" fill-rule="evenodd" d="m812.377242,303.545241l11.31371,22.92031l9.89949,42.42641l9.8995,21.2132c-11.89399,-27.33535 -34.35086,-47.45512 -31.1127,-86.55992z" id="path15258"/>
   <path fill="#dcdcd4" fill-rule="evenodd" d="m798.184403,177.076571c5.30487,-1.53156 5.30546,-4.3892 7.39661,-6.72419c0.36339,5.79365 3.11785,4.87026 7.06039,4.60287c7.15372,-0.48519 9.02614,-0.98211 12.10354,-3.93045l4.37072,7.06039l-15.12942,10.7587l-15.80184,-11.76732z" id="path16143"/>
   <path fill="#dcdcd4" fill-rule="evenodd" d="m794.699573,239.137861c3.10724,0.17823 5.70436,1.0366 6.01041,4.94975c0.34747,-2.00195 -0.07765,-3.85271 3.88908,-6.71752c2.00746,-1.44981 4.24264,1.06066 4.24264,1.06066c-0.74917,-2.47487 1.1599,-4.94975 3.18199,-7.42462l-7.77818,-1.41421l-9.54594,9.54594z" id="path17018"/>
   <path fill="#dcdcd4" fill-rule="evenodd" d="m806.013282,273.078991c0.98871,1.65301 -12.69922,1.68818 -10.96016,-0.35356c1.73906,-2.04174 3.16965,-4.49478 2.12132,-10.25305c0,0 1.85616,7.42463 3.88909,7.42463c2.03293,0 4.24264,-7.42463 4.24264,-7.42463c-0.8816,6.3288 -0.2816,8.9536 0.70711,10.60661z" id="path17020"/>
   <path fill="#000000" fill-opacity="0.7" fill-rule="evenodd" d="m722.300943,287.280701c-4.795,-3.22861 -5.59964,-7.12228 -6.5,-11c3.42362,-1.21759 5.31224,-3.4585 6.75,-6c5.49542,8.45604 1.58362,11.83348 -0.25,17z" id="path3414"/>
   <path fill="#d7d77a" fill-rule="evenodd" stroke="#000000" stroke-miterlimit="4" d="m772.425943,243.374451c-16.09351,14.05764 -32.44268,25.73295 -51.28125,29.78125c-4.47184,1.88187 -3.09029,11.44306 2.3125,10.75c21.77075,-4.6784 39.63104,-17.72943 56.21875,-32.21875c0.98831,-1.57519 -0.61726,-3.72493 -2.16593,-5.58273c-1.62476,-1.94909 -3.26241,-3.55166 -5.08407,-2.72977z" id="path1660"/>
   <path fill="none" stroke="#000000" stroke-width="1px" d="m771.891062,244.182911c-0.67811,3.35296 4.12272,5.36368 7.1014,7.63173" id="path4290"/>
   <path fill="none" stroke="#000000" stroke-width="1px" d="m787.050943,271.780701c-2.51173,-0.28069 -4.67849,9.0765 -1.5,11.25" id="path4292"/>
   <path fill="#000000" fill-opacity="0.15" fill-rule="evenodd" d="m784.800943,275.030701c2.64923,-7.61723 7.42886,0.59307 1.25,8c0.57324,-2.66667 1.40326,-5.33333 -1.25,-8z" id="path4294"/>
   <path fill="#000000" fill-opacity="0.15" fill-rule="evenodd" d="m716.550943,290.280701c1.80375,7.20754 9.91889,7.47256 18.25,7.5l-12,3l-5.5,0l-6,-2.75l-0.25,-3l2,-4.25l3.5,-0.5z" id="path4296"/>
   <path fill="none" stroke="#000000" stroke-width="1px" stroke-opacity="0.313725" d="m720.300943,282.530701c10.6618,-3.54714 21.28769,-5.88469 29.75,-12" id="path4298"/>
   <path fill="none" stroke="#000000" stroke-width="1px" stroke-opacity="0.313725" d="m739.550943,273.530701c-6.68138,2.25 -13.41337,4.5 -20.75,6.75" id="path4300"/>
   <path fill="none" stroke="#a7a69c" stroke-width="1px" stroke-miterlimit="4" d="m806.050943,176.030701l-6.25,65" id="path5175"/>
   <path fill="none" stroke="#a7a69c" stroke-width="1px" stroke-miterlimit="4" d="m821.050943,181.530701l-15,55.5" id="path5177"/>
   <path fill="none" stroke="#a7a69c" stroke-width="1px" stroke-miterlimit="4" d="m813.550943,182.280701l-10.25,56.75" id="path5179"/>
   <path fill="none" stroke="#a7a69c" stroke-width="1px" stroke-miterlimit="4" d="m803.300943,275.530701l2.5,17.25" id="path5183"/>
  </g>
  <g id="g1645">
   <path fill="#e7a69a" fill-rule="evenodd" d="m764.658312,663.805741c-46.73388,31.40716 -95.30636,42.13771 -144.24979,53.74011c-24.03895,5.69861 -27.97722,-6.13406 -25.45584,-18.38477c8.31747,-40.41227 18.22293,-80.94488 41.01219,-127.27923c2.24772,6.26917 5.17922,12.02549 14.84924,12.72793c4.42173,3.77124 6.99852,7.54247 14.84925,11.31371c6.83536,6.72952 13.67073,7.83959 20.50609,7.07106c5.5464,2.68839 11.00671,5.63505 18.38478,2.82843l6.98528,0.70711l8.57107,-12.02082c6.83275,3.5303 11.99455,3.71872 16.97056,3.53554c1.27902,6.40902 0.62653,13.46188 12.72792,16.26345c-0.34788,8.98189 4.13318,14.34208 11.31371,17.67767c-1.71283,5.65685 -2.87061,11.31371 2.82843,16.97056c-1.9249,4.94975 -4.64412,9.8995 0.70711,14.84925z" id="path1551"/>
   <path fill="none" stroke="#000000" stroke-width="2" stroke-miterlimit="4" d="m764.658312,663.805741c-46.73388,31.40716 -95.30636,42.13771 -144.24979,53.74011c-24.03895,5.69861 -27.97722,-6.13406 -25.45584,-18.38477c8.31747,-40.41227 18.22293,-80.94488 41.01219,-127.27923" id="path1545"/>
   <path fill="#000000" fill-rule="evenodd" d="m715.101563,600.968201c-26.29524,32.91693 -52.55665,65.71653 -86.03125,87.46875c0,0 23.8475,-15.08845 34.18555,-25.00554c19.18925,-18.40787 36.31903,-39.82063 53.4082,-61.21321l-1.5625,-1.25z" id="path1547"/>
   <path fill="#000000" fill-rule="evenodd" d="m640.757813,580.874451c-16.5327,37.02925 -29.30765,75.96577 -36.40625,116.78125c0,0 3.5591,-13.54433 5.07211,-20.33056c7.42627,-33.30866 18.52946,-65.33525 32.24039,-96.04444l-0.90625,-0.40625z" id="path1553"/>
   <path fill="none" stroke="#000000" stroke-width="1px" d="m653.351563,588.530701c-28.41118,43.5 -29.04967,88 -51,130.5" id="path1557"/>
   <path fill="none" stroke="#000000" stroke-width="1px" d="m665.851563,597.530701c-19.29418,26.66667 -27.17994,53.33333 -40.5,80" id="path1559"/>
   <path fill="none" stroke="#000000" stroke-width="1px" d="m694.351563,606.530701c-16.31078,27.87003 -38.36763,52.45659 -64,75" id="path1561"/>
   <path fill="none" stroke="#000000" stroke-width="1px" d="m677.851563,603.030701c-8.98826,21.4464 -24.06553,41.87797 -41,62" id="path1563"/>
   <path fill="#000000" fill-rule="evenodd" d="m670.382813,599.811951c-8.31924,17.98574 -16.63038,31.23038 -24.96875,45.46875c0,0 17.55883,-26.98457 25.90625,-45.03125l-0.9375,-0.4375z" id="path1566"/>
   <path fill="#000000" fill-rule="evenodd" d="m657.945313,592.249451c-13.6442,21.04798 -20.34245,40.96763 -26.0625,60.65625c0,0 13.30598,-39.16175 26.875,-60.09375l-0.8125,-0.5625z" id="path1570"/>
   <path fill="#000000" fill-rule="evenodd" d="m603.382813,673.374451c-2.04382,6.32689 -2.87046,14.0906 -3.59375,21.46875c-0.72329,7.37815 -1.35174,14.38457 -2.90625,19.03125l0.9375,0.3125c1.62365,-4.85332 2.24607,-11.8469 2.96875,-19.21875l2.59375,-21.59375z" id="path1576"/>
   <path fill="none" stroke="#000000" stroke-width="1px" d="m608.851563,719.030701c52.80375,-29.01875 97.65372,-21.26859 154,-69.5" id="path1582"/>
   <path fill="#000000" fill-rule="evenodd" d="m733.914063,597.311951c-25.65827,51.99692 -67.783,71.0951 -104.8272,100.75966l-14.39155,13.83409c39.90772,-37.88936 90.70317,-54.59575 120.09375,-114.15625l-0.875,-0.4375z" id="path1584"/>
   <path fill="#000000" fill-rule="evenodd" d="m742.945313,610.749451c-24.59193,35.28619 -57.16284,58.52084 -82.45302,75.01598l-20.85948,14.67152c25.11595,-16.74537 71.55825,-42.39599 104.125,-89.125l-0.8125,-0.5625z" id="path1586"/>
   <path fill="#000000" fill-rule="evenodd" d="m758.476563,632.218201c-24.77571,29.22706 -70.72974,44.58574 -104.375,62.875c0,0 26.13769,-11.81686 39.82846,-18.39617c24.50397,-11.77576 49.22098,-24.89005 65.29654,-43.85383l-0.75,-0.625z" id="path1588"/>
   <path fill="#000000" fill-rule="evenodd" d="m749.914063,621.780701c-7.0085,12.93784 -16.65768,21.67464 -27.15681,29.11727l-22.12444,15.53898c18.31796,-11.95385 38.08245,-21.86776 50.15625,-44.15625l-0.875,-0.5z" id="path1590"/>
  </g>
  <g id="g1633">
   <path fill="#e7a69a" fill-rule="evenodd" d="m419.504413,604.322981l5.97927,13.07732c5.4325,1.41805 10.86499,1.91076 16.29749,-4.11187c3.92322,-3.4809 8.35966,-5.42213 10.50559,-14.23489c5.90781,-4.14803 12.00599,-7.15391 16.0938,-22.22194c17.08254,39.12658 21.33548,78.19645 24.16295,117.37973c1.5367,21.29566 -9.32604,23.69052 -17.26345,20.50609c-21.84233,-8.76298 -50.79305,-33.72113 -51.01901,-62.33907c-8.75059,-11.9077 -8.2265,-30.10088 -4.75664,-48.05537z" id="path1555"/>
   <path fill="none" stroke="#000000" stroke-width="2" stroke-miterlimit="4" d="m468.380562,576.831601c17.08254,39.12658 21.33548,78.19645 24.16295,117.37973c1.5367,21.29566 -9.32604,23.69052 -17.26345,20.50609c-21.84233,-8.76298 -50.79305,-33.72113 -51.01901,-62.33907c-8.75059,-11.9077 -8.2265,-30.10088 -4.75664,-48.05537" id="path1549"/>
   <path fill="#000000" fill-rule="evenodd" d="m423.632813,650.405701l-1.5625,1.25c12.53696,16.14819 23.53551,23.24864 34.6875,31.6875c0,0 -20.76074,-17.01175 -33.125,-32.9375z" id="path1602"/>
   <path fill="#000000" fill-rule="evenodd" d="m460.289063,593.811951l-0.875,0.4375c19.36274,38.47821 18.63534,74.5003 27.9375,111.90625c0,0 -3.01968,-18.85722 -4.56644,-28.11404c-4.62266,-27.66507 -7.90028,-55.22453 -22.49606,-84.22971z" id="path1606"/>
   <path fill="none" stroke="#000000" stroke-width="1px" d="m447.351563,611.030701c18.86385,30.2951 24.49446,60.59021 34.31037,90.88531" id="path1608"/>
   <path fill="#000000" fill-rule="evenodd" d="m431.257813,617.218201l-0.8125,0.625c13.83521,17.36623 22.47186,36.23966 30.00671,53.64444l15.83704,32.82431c-14.39125,-28.44145 -22.25771,-58.50796 -45.03125,-87.09375z" id="path1610"/>
   <path fill="#000000" fill-rule="evenodd" d="m428.726563,667.718201l-0.75,0.625c7.68054,9.38557 15.3642,16.53332 23.03125,23.09375c6.52015,5.57907 13.00201,10.74027 19.5,16.46875c0,0 -12.37374,-11.65584 -18.875,-17.21875c-7.64485,-6.54143 -15.27489,-13.64326 -22.90625,-22.96875z" id="path1612"/>
   <path fill="#000000" fill-rule="evenodd" d="m416.789063,623.811951l-0.875,0.4375c5.89752,11.91575 11.08307,19.65642 16,25.625c6.07266,7.37155 11.68643,12.03459 17.5625,18.5c0,0 -10.76958,-11.82748 -16.78125,-19.125c-4.86755,-5.90864 -10.03617,-13.57717 -15.90625,-25.4375z" id="path1614"/>
   <path fill="#000000" fill-rule="evenodd" d="m419.320313,608.374451l-0.9375,0.3125c7.01873,21.93898 17.60857,34.9106 27.03125,50.59375c0,0 -19.12923,-29.1367 -26.09375,-50.90625z" id="path1625"/>
   <path fill="#000000" fill-rule="evenodd" d="m453.789063,599.780701l-0.875,0.5c10.73143,18.59368 15.1942,37.21227 19.4375,55.875c0,0 -7.74681,-37.63534 -18.5625,-56.375z" id="path1627"/>
  </g>
  <path fill="#000000" fill-opacity="0.08" fill-rule="evenodd" id="path1572" d="m674.148643,885.837271c9.56759,5.42115 12.74692,24.98444 0.7071,37.47666c5.89256,0.2357 11.78511,0.4714 17.67767,0.7071c4.85572,-2.68675 9.19795,-5.88699 17.67767,-4.94975l-2.12132,-41.01219l-12.02081,5.86396c-3.2887,-2.54215 -11.09607,-1.19529 -21.92031,1.91422z"/>
  <path fill="#000000" fill-opacity="0.08" fill-rule="evenodd" id="path2447" d="m684.351563,810.530701l10.5,-4l5.5,0l10.5,-3.5l-3,21.5l1.5,21.5l-11.5,0l-14,3c1.38459,-12.83333 4.15227,-25.66667 0.5,-38.5z"/>
  <path fill="#000000" fill-opacity="0.08" fill-rule="evenodd" id="path2449" d="m681.851563,784.530701c7.00263,-8.33333 7.28682,-16.66667 5,-25l5,5l7.5,-2l6.5,6.5l14,-4.5l-10,18l0,12l-20,-10l-8,0z"/>
  <path fill="#000000" fill-opacity="0.16" fill-rule="evenodd" id="path2451" d="m709.851563,785.530701l9.5,-20.5l-11,3.5c6.17737,-6 10.93757,-12 10.5,-18l4,2.5l21,-29.5l-4,24.5l-8,19.5l-19,17l-3,1z"/>
  <path fill="#000000" fill-rule="evenodd" stroke="#000000" stroke-width="2" stroke-miterlimit="4" d="m626.944061,130.318787a3,3 0 1 1 -6,0a3,3 0 1 1 6,0z" id="path4363"/>
  <path fill="none" stroke="#000000" stroke-width="2" stroke-miterlimit="4" stroke-dasharray="6, 2" stroke-dashoffset="0" id="path4365" d="m917.195933,74.664471l-107.9899,0l-185.26197,55.15433"/>
  <path fill="none" stroke="#000000" stroke-width="2" stroke-miterlimit="4" stroke-dasharray="6, 2" stroke-dashoffset="0" id="path4367" d="m305.851563,173.530701l137,0l163.6971,43.8625"/>
  <path fill="none" stroke="#000000" stroke-width="2" stroke-miterlimit="4" stroke-dasharray="6, 2" stroke-dashoffset="0" id="path4369" d="m305.851563,234.530701l131,0l96.31922,25.80866"/>
  <path fill="#000000" fill-rule="evenodd" stroke="#000000" stroke-width="2" stroke-miterlimit="4" d="m610.851563,217.530701a3,3 0 1 1 -6,0a3,3 0 1 1 6,0z" id="path4371"/>
  <path fill="#000000" fill-rule="evenodd" stroke="#000000" stroke-width="2" stroke-miterlimit="4" d="m535.851563,261.030701a3,3 0 1 1 -6,0a3,3 0 1 1 6,0z" id="path4373"/>
  <path fill="none" stroke="#000000" stroke-width="2" stroke-miterlimit="4" stroke-dasharray="6, 2" stroke-dashoffset="0" id="path4375" d="m306.851563,379.530701l195,0"/>
  <path fill="#000000" fill-rule="evenodd" stroke="#000000" stroke-width="2" stroke-miterlimit="4" d="m505.851563,379.530701a3,3 0 1 1 -6,0a3,3 0 1 1 6,0z" id="path4377"/>
  <path fill="none" stroke="#000000" stroke-width="2" stroke-miterlimit="4" stroke-dasharray="6, 2" stroke-dashoffset="0" id="path4379" d="m307.851563,533.530701l98,0l141.21861,51.39937"/>
  <path fill="none" stroke="#000000" stroke-width="2" stroke-miterlimit="4" stroke-dasharray="6, 2" stroke-dashoffset="0" id="path4381" d="m310.851563,600.530701l178,0"/>
  <path fill="#000000" fill-rule="evenodd" stroke="#000000" stroke-width="2" stroke-miterlimit="4" d="m548.851563,584.030701a3,3 0 1 1 -6,0a3,3 0 1 1 6,0z" id="path4383"/>
  <path fill="#000000" fill-rule="evenodd" stroke="#000000" stroke-width="2" stroke-miterlimit="4" d="m491.851563,600.030701a3,3 0 1 1 -6,0a3,3 0 1 1 6,0z" id="path4385"/>
  <path fill="none" stroke="#000000" stroke-width="2" stroke-miterlimit="4" stroke-dasharray="6, 2" stroke-dashoffset="0" id="path4403" d="m304.851563,438.530701l68,0l137.75575,36.91154"/>
  <path fill="#000000" fill-rule="evenodd" stroke="#000000" stroke-width="2" stroke-miterlimit="4" d="m515.851563,476.530701a3,3 0 1 1 -6,0a3,3 0 1 1 6,0z" id="path4405"/>
  <path fill="none" stroke="#000000" stroke-width="2" stroke-miterlimit="4" stroke-dasharray="6, 2" stroke-dashoffset="0" id="path4407" d="m311.248533,758.960071l46.82338,0l178.63452,-47.86497"/>
  <path fill="none" stroke="#000000" stroke-width="2" stroke-miterlimit="4" stroke-dasharray="6, 2" stroke-dashoffset="0" id="path4409" d="m315.231292,819.369231l239.22515,64.10019"/>
  <path fill="#000000" fill-rule="evenodd" stroke="#000000" stroke-width="2" stroke-miterlimit="4" d="m539.851563,710.530701a3,3 0 1 1 -6,0a3,3 0 1 1 6,0z" id="path4413"/>
  <path fill="none" stroke="#000000" stroke-width="2" stroke-miterlimit="4" stroke-dasharray="6, 2" stroke-dashoffset="0" id="path4415" d="m915.781723,232.470601l-8.99495,0l-101.4612,-27.18645"/>
  <path fill="none" stroke="#000000" stroke-width="2" stroke-miterlimit="4" stroke-dasharray="6, 2" stroke-dashoffset="0" id="path4417" d="m918.610153,313.281781l-37.27923,0l-74.17504,-0.12486"/>
  <path fill="none" stroke="#000000" stroke-width="2" stroke-miterlimit="4" stroke-dasharray="6, 2" stroke-dashoffset="0" id="path4421" d="m917.195933,395.105161l-65.56349,0l-93.3381,-93.3381"/>
  <path fill="none" stroke="#000000" stroke-width="2" stroke-miterlimit="4" stroke-dasharray="6, 2" stroke-dashoffset="0" id="path4423" d="m762.195592,289.262321c-1.99779,9.84416 -6.6353,16.74738 -12.03299,16.74738c-7.22098,0 -13.08148,-12.35457 -13.08148,-27.57716c0,-15.22259 5.8605,-27.57716 13.08148,-27.57716c1.97694,0 3.8519,0.92603 5.53255,2.5834"/>
  <path fill="none" stroke="#000000" stroke-width="2" stroke-miterlimit="4" stroke-dasharray="6, 2" stroke-dashoffset="0" id="path4426" d="m915.851563,459.530701l-40,0l-117.93534,54.99415"/>
  <path fill="none" stroke="#000000" stroke-width="2" stroke-miterlimit="4" stroke-dasharray="6, 2" stroke-dashoffset="0" id="path4428" d="m724.851563,573.530701c33.53066,-42.44741 51.03473,-93.36882 59,-178"/>
  <path fill="none" stroke="#000000" stroke-width="2" stroke-miterlimit="4" stroke-dasharray="6, 2" stroke-dashoffset="0" id="path4430" d="m917.869513,523.561791l-216.44358,124.96376"/>
  <path fill="none" stroke="#000000" stroke-width="2" stroke-miterlimit="4" stroke-dasharray="6, 2" stroke-dashoffset="0" id="path4432" d="m917.954443,588.708901l-6.75,3.89712l-140.94005,81.37178"/>
  <path fill="none" stroke="#000000" stroke-width="2" stroke-miterlimit="4" stroke-dasharray="6, 2" stroke-dashoffset="0" id="path4436" d="m915.851563,713.530701l-185,0"/>
  <path fill="#000000" fill-rule="evenodd" stroke="#000000" stroke-width="2" stroke-miterlimit="4" d="m704.851563,647.530701a3,3 0 1 1 -6,0a3,3 0 1 1 6,0z" id="path4438"/>
  <path fill="#000000" fill-rule="evenodd" stroke="#000000" stroke-width="2" stroke-miterlimit="4" d="m775.851563,673.530701a3,3 0 1 1 -6,0a3,3 0 1 1 6,0z" id="path4440"/>
  <path fill="#000000" fill-rule="evenodd" stroke="#000000" stroke-width="2" stroke-miterlimit="4" d="m735.851563,713.030701a3,3 0 1 1 -6,0a3,3 0 1 1 6,0z" id="path4442"/>
  <path fill="#000000" fill-rule="evenodd" stroke="#000000" stroke-width="2" stroke-miterlimit="4" d="m809.377563,206.514801a3,3 0 1 1 -6,0a3,3 0 1 1 6,0z" id="path4444"/>
  <path fill="#000000" fill-rule="evenodd" stroke="#000000" stroke-width="2" stroke-miterlimit="4" d="m810.79187,313.994987a3,3 0 1 1 -6,0a3,3 0 1 1 6,0z" id="path4446"/>
  <path fill="#000000" fill-opacity="0.08" fill-rule="evenodd" id="path4448" d="m650.851563,673.030701c25.87117,-23.04991 48.55578,-39.08938 80.5,-75.5c-5.69243,0.28636 -9.80354,0.04563 -11.5,-1l-23,27.5l-23,26.5l-23,22.5z"/>
  <path fill="#000000" fill-opacity="0.08" fill-rule="evenodd" id="path4450" d="m484.351563,633.030701c-0.12979,35.8412 -1.08297,69.85266 -13,79.5l6,4.5l10,-3l6,-9l-2,-29l-7,-43z"/>
  <path fill="#000000" fill-rule="evenodd" stroke="#000000" stroke-width="2" stroke-miterlimit="4" d="m559.851563,884.530701a3,3 0 1 1 -6,0a3,3 0 1 1 6,0z" id="path4452"/>
  <text font-size="25px" text-anchor="end" fill="#000000" font-family="Arial" xml:space="preserve" x="306.139942" y="180.732101" id="text4046">甲状舌骨膜</text>
  <text style="cursor: move;" font-size="25px" text-anchor="end" fill="#000000" font-family="Arial" xml:space="preserve" x="306.139982" y="240.676251" id="text1994">甲状舌骨正中韧带</text>
  <text style="cursor: move;" font-size="25px" text-anchor="end" fill="#000000" font-family="Arial" xml:space="preserve" x="306.140103" y="385.542111" id="text1998">喉结</text>
  <text style="cursor: move;" font-size="25px" text-anchor="end" fill="#000000" font-family="Arial" xml:space="preserve" x="306.140162" y="443.488491" id="text2002">甲状软骨</text>
  <text style="cursor: move;" font-size="25px" text-anchor="end" fill="#000000" font-family="Arial" xml:space="preserve" x="306.140233" y="538.400361" id="text2006">环甲正中韧带</text>
  <text style="cursor: move;" font-size="25px" text-anchor="end" fill="#000000" font-family="Arial" xml:space="preserve" x="306.140292" y="608.336611" id="text2010">弹性圆锥</text>
  <text style="cursor: move;" font-size="25px" text-anchor="end" fill="#000000" font-family="Arial" xml:space="preserve" x="306.140413" y="763.192871" id="text2014">环状软骨</text>
  <text style="cursor: move;" font-size="25px" text-anchor="end" fill="#000000" font-family="Arial" xml:space="preserve" x="306.140453" y="823.137211" id="text2018">气管</text>
  <text style="cursor: move;" font-size="25px" text-anchor="start" fill="#000000" font-family="Arial" xml:space="preserve" x="921.722413" y="530.409331" id="text2022">环甲肌</text>
  <text style="cursor: move;" font-size="25px" text-anchor="start" fill="#000000" font-family="Arial" xml:space="preserve" x="921.723263" y="590.354611" id="text2026">甲状软骨下角</text>
  <text style="cursor: move;" font-size="25px" text-anchor="start" fill="#000000" font-family="Arial" xml:space="preserve" x="921.724852" y="720.234011" id="text2030">环甲关节</text>
  <text style="cursor: move;" font-size="25px" text-anchor="start" fill="#000000" font-family="Arial" xml:space="preserve" x="921.723202" y="465.470431" id="text2034">甲状软骨斜线</text>
  <text style="cursor: move;" font-size="25px" text-anchor="start" fill="#000000" font-family="Arial" xml:space="preserve" x="921.724002" y="400.530701" id="text2038">喉上神经和动脉</text>
  <text style="cursor: move;" font-size="25px" text-anchor="start" fill="#000000" font-family="Arial" xml:space="preserve" x="921.725463" y="320.606961" id="text2042">甲状软骨上角</text>
  <text style="cursor: move;" font-size="25px" text-anchor="start" fill="#000000" font-family="Arial" xml:space="preserve" x="921.725952" y="240.681321" id="text2046">甲状舌骨外侧韧带</text>
  <text style="cursor: move;" font-size="25px" text-anchor="start" fill="#000000" font-family="Arial" xml:space="preserve" x="921.727903" y="80.830731" id="text2050">舌骨</text>
 </g>
</svg>